<?xml version="1.0" encoding="UTF-8"?>
<svg width="72px" height="96px" viewBox="0 0 72 96" version="1.1" xmlns="http://www.w3.org/2000/svg" xmlns:xlink="http://www.w3.org/1999/xlink">
    <!-- Generator: Sketch 55.2 (78181) - https://sketchapp.com -->
    <title>np_ghost-emoji_856205_000000</title>
    <desc>Created with Sketch.</desc>
    <g id="Page-1" stroke="none" stroke-width="1" fill="none" fill-rule="evenodd">
        <g id="np_ghost-emoji_856205_000000" fill="#000000" fill-rule="nonzero">
            <path d="M63.105,95.5 C58.2027,95.5 54.2105,91.4922 54.2105,86.5664 L54.2105,82.5976 C54.2105,80.0156 52.1207,77.9179 49.5503,77.9179 C46.9839,77.9179 44.8941,80.0195 44.8941,82.5976 L44.8941,86.5664 C44.8941,91.4922 40.9058,95.5 35.9996,95.5 C31.0973,95.5 27.1051,91.4922 27.1051,86.5664 L27.101193,82.5976 C27.101193,80.0156 25.011393,77.9179 22.444993,77.9179 C19.878593,77.9179 17.784793,80.0195 17.784793,82.5976 L17.784793,86.5664 C17.784793,91.4922 13.796493,95.5 8.890293,95.5 C3.987993,95.5 -0.000307,91.4922 -0.000307,86.5664 L-0.000307,35.2384 C-0.000307,16.0824 16.147693,0.5004 35.999693,0.5004 C55.851693,0.5004 71.999693,16.0824 71.999693,35.2384 L71.999693,86.5664 C71.999693,91.4922 68.011393,95.5 63.105193,95.5 L63.105,95.5 Z M49.554,73.664 C54.4602,73.664 58.4485,77.6718 58.4485,82.5976 L58.4485,86.5664 C58.4485,89.1484 60.5383,91.2461 63.1047,91.2461 C65.675,91.2461 67.7649,89.1484 67.7649,86.5664 L67.7649,35.2384 C67.7649,18.4264 53.5149,4.7544 35.9989,4.7544 C18.4829,4.7544 4.2329,18.4304 4.2329,35.2384 L4.2329,86.5664 C4.2329,89.1484 6.3227,91.2461 8.8931,91.2461 C11.4595,91.2461 13.5493,89.1484 13.5493,86.5664 L13.5493,82.5976 C13.5493,77.6718 17.5376,73.664 22.4438,73.664 C27.3461,73.664 31.3383,77.6718 31.3383,82.5976 L31.342206,86.5664 C31.342206,89.1484 33.432006,91.2461 35.998406,91.2461 C38.568706,91.2461 40.658606,89.1484 40.658606,86.5664 L40.658606,82.5976 C40.658606,77.6718 44.646906,73.664 49.553106,73.664 L49.554,73.664 Z" id="Shape"></path>
            <path d="M20.473,68.691 C20.37925,68.691 20.2855,68.687094 20.19175,68.671469 C19.14095,68.530849 18.35195,67.632369 18.35195,66.565969 L18.35195,61.605069 C18.35195,60.429269 19.30117,59.476169 20.46915,59.476169 C21.11368,59.476169 21.68795,59.765229 22.07465,60.218359 C25.29345,57.343359 30.19575,55.659759 35.96165,55.659759 C40.93045,55.663665 46.31665,57.112859 49.89565,60.245659 C50.28627,59.772999 50.87221,59.476129 51.52845,59.476129 C52.69645,59.476129 53.64565,60.429259 53.64565,61.605029 L53.64565,66.565929 C53.64565,67.632329 52.86049,68.534729 51.80585,68.671429 C50.74335,68.819869 49.75895,68.147989 49.48165,67.120629 C48.13395,62.140129 41.71995,59.917529 35.95865,59.913629 C30.23595,59.913629 23.85365,62.144129 22.50965,67.120629 C22.26356,68.058129 21.41585,68.690929 20.47445,68.690929 L20.473,68.691 Z" id="Path" transform="translate(35.998800, 62.175846) rotate(180.000000) translate(-35.998800, -62.175846) "></path>
            <path d="M31.82,36.617 C31.82,36.617 23.2184,34.1404 13.687,26.176 C13.687,26.176 11.1558,45.824 21.4878,45.824 C31.8198,45.824 31.8198,36.617 31.8198,36.617 L31.82,36.617 Z" id="Path"></path>
            <path d="M40.18,36.617 C40.18,36.617 48.7855,34.1404 58.313,26.176 C58.313,26.176 60.8442,45.824 50.5122,45.824 C40.1802,45.824 40.1802,36.617 40.1802,36.617 L40.18,36.617 Z" id="Path"></path>
        </g>
    </g>
</svg>